# xmcd CD database file
#
# Track frame offsets:
#	150
#	11724
#	24981
#	37433
#	50950
#	58504
#	73599
#	85213
#	98219
#	108655
#	122343
#	136746
#	146300
#	159822
#	173359
#	186471
#	200540
#
# Disc length: 2945 seconds
#
# Revision: 0
# Processed by: cddbd v1.5.2PL0 Copyright (c) Steve Scherf et al.
# Submitted via: CDex 1.70beta2
#
DISCID=e80b7f11
DTITLE=Cole, Nat King Trio - V Disc
DYEAR=1998
DGENRE=Jazz
TTITLE0=If You Can't Smile and Say Yes (Please Don't Cry and Say No)
TTITLE1=Any Old Time
TTITLE2=Satchel Mouth Baby
TTITLE3=Route 66 Kicks
TTITLE4=A Pile O' Cole
TTITLE5=Embraceable You
TTITLE6=Bring Another Drink
TTITLE7=Gee Baby, Ain't I Good to You
TTITLE8=Candy
TTITLE9=What Is This Thing Called Love?
TTITLE10=Sweet Lorraine
TTITLE11=Solid Potato Salad
TTITLE12=The Frim Fram Sauce
TTITLE13=I Realize Now
TTITLE14=It's Only a Paper Moon
TTITLE15=Nat Meets June
TTITLE16=All for You/I Can't See for Lookin'
EXTD=YEAR: 1998
EXTT0=
EXTT1=
EXTT2=
EXTT3=
EXTT4=
EXTT5=
EXTT6=
EXTT7=
EXTT8=
EXTT9=
EXTT10=
EXTT11=
EXTT12=
EXTT13=
EXTT14=
EXTT15=
EXTT16=
PLAYORDER=
